<?xml version="1.0" encoding="UTF-8" standalone="no"?><!DOCTYPE svg PUBLIC "-//W3C//DTD SVG 1.1//EN" "http://www.w3.org/Graphics/SVG/1.1/DTD/svg11.dtd"><svg width="100%" height="100%" viewBox="0 0 200 200" version="1.1" xmlns="http://www.w3.org/2000/svg" xmlns:xlink="http://www.w3.org/1999/xlink" xml:space="preserve" xmlns:serif="http://www.serif.com/" style="fill-rule:evenodd;clip-rule:evenodd;stroke-linecap:round;stroke-linejoin:round;stroke-miterlimit:1.5;"><path d="M156.5,13.3c0,-6.237 -5.063,-11.3 -11.3,-11.3l-90.4,0c-6.237,0 -11.3,5.063 -11.3,11.3l0,173.4c0,6.237 5.063,11.3 11.3,11.3l90.4,-0c6.237,-0 11.3,-5.063 11.3,-11.3l0,-173.4Z" style="fill:#2786cc;stroke:#2a62b7;stroke-width:2px;"/><rect x="46" y="103" width="22" height="13" style="fill:#1a2a86;stroke:#2a62b7;stroke-width:2px;"/><rect x="74" y="103" width="22" height="13" style="fill:#1a2a86;stroke:#2a62b7;stroke-width:2px;"/><rect x="104" y="103" width="22" height="13" style="fill:#1a2a86;stroke:#2a62b7;stroke-width:2px;"/><rect x="132" y="103" width="22" height="13" style="fill:#1a2a86;stroke:#2a62b7;stroke-width:2px;"/><rect x="46" y="122" width="22" height="13" style="fill:#1a2a86;stroke:#2a62b7;stroke-width:2px;"/><rect x="74" y="122" width="22" height="13" style="fill:#1a2a86;stroke:#2a62b7;stroke-width:2px;"/><rect x="104" y="122" width="22" height="13" style="fill:#1a2a86;stroke:#2a62b7;stroke-width:2px;"/><rect x="132" y="122" width="22" height="13" style="fill:#1a2a86;stroke:#2a62b7;stroke-width:2px;"/><rect x="46" y="141" width="22" height="13" style="fill:#1a2a86;stroke:#2a62b7;stroke-width:2px;"/><rect x="74" y="141" width="22" height="13" style="fill:#1a2a86;stroke:#2a62b7;stroke-width:2px;"/><rect x="104" y="141" width="22" height="13" style="fill:#1a2a86;stroke:#2a62b7;stroke-width:2px;"/><rect x="132" y="141" width="22" height="13" style="fill:#1a2a86;stroke:#2a62b7;stroke-width:2px;"/><rect x="46" y="160" width="22" height="13" style="fill:#1a2a86;stroke:#2a62b7;stroke-width:2px;"/><rect x="74" y="160" width="22" height="13" style="fill:#1a2a86;stroke:#2a62b7;stroke-width:2px;"/><rect x="104" y="160" width="22" height="13" style="fill:#1a2a86;stroke:#2a62b7;stroke-width:2px;"/><rect x="132" y="160" width="22" height="13" style="fill:#1a2a86;stroke:#2a62b7;stroke-width:2px;"/><rect x="43.5" y="33.3" width="113" height="50.7" style="fill:#1a2a86;stroke:#2a62b7;stroke-width:2px;"/></svg>